<mxfile host="Electron" agent="Mozilla/5.0 (Windows NT 10.0; Win64; x64) AppleWebKit/537.36 (KHTML, like Gecko) draw.io/26.0.16 Chrome/132.0.6834.196 Electron/34.2.0 Safari/537.36" version="26.0.16">
  <diagram name="Page-1" id="FDJyB5ifmkAeyxpxCIjm">
    <mxGraphModel dx="2022" dy="738" grid="1" gridSize="10" guides="1" tooltips="1" connect="1" arrows="1" fold="1" page="1" pageScale="1" pageWidth="827" pageHeight="1169" math="0" shadow="0">
      <root>
        <mxCell id="0" />
        <mxCell id="1" parent="0" />
        <mxCell id="v9YeCeuR4lEg2rzy3me_-1" value="k:Kor" style="shape=umlLifeline;perimeter=lifelinePerimeter;whiteSpace=wrap;html=1;container=1;dropTarget=0;collapsible=0;recursiveResize=0;outlineConnect=0;portConstraint=eastwest;newEdgeStyle={&quot;curved&quot;:0,&quot;rounded&quot;:0};" parent="1" vertex="1">
          <mxGeometry x="60" y="80" width="100" height="560" as="geometry" />
        </mxCell>
        <mxCell id="v9YeCeuR4lEg2rzy3me_-5" value="loop" style="shape=umlFrame;whiteSpace=wrap;html=1;pointerEvents=0;width=50;height=20;" parent="1" vertex="1">
          <mxGeometry x="-10" y="450" width="240" height="80" as="geometry" />
        </mxCell>
        <mxCell id="v9YeCeuR4lEg2rzy3me_-6" value="[for each Jatekos]" style="text;html=1;align=center;verticalAlign=middle;resizable=0;points=[];autosize=1;strokeColor=none;fillColor=none;" parent="1" vertex="1">
          <mxGeometry x="-16" y="470" width="120" height="30" as="geometry" />
        </mxCell>
        <mxCell id="v9YeCeuR4lEg2rzy3me_-9" value=":Jatekos" style="shape=umlLifeline;perimeter=lifelinePerimeter;whiteSpace=wrap;html=1;container=1;dropTarget=0;collapsible=0;recursiveResize=0;outlineConnect=0;portConstraint=eastwest;newEdgeStyle={&quot;curved&quot;:0,&quot;rounded&quot;:0};rounded=0;glass=0;shadow=0;size=30;" parent="1" vertex="1">
          <mxGeometry x="170" y="415" width="60" height="225" as="geometry" />
        </mxCell>
        <mxCell id="v9YeCeuR4lEg2rzy3me_-11" value=":Gombafonal" style="shape=umlLifeline;perimeter=lifelinePerimeter;whiteSpace=wrap;html=1;container=1;dropTarget=0;collapsible=0;recursiveResize=0;outlineConnect=0;portConstraint=eastwest;newEdgeStyle={&quot;curved&quot;:0,&quot;rounded&quot;:0};rounded=0;glass=0;shadow=0;" parent="1" vertex="1">
          <mxGeometry x="414" y="80" width="100" height="560" as="geometry" />
        </mxCell>
        <mxCell id="v9YeCeuR4lEg2rzy3me_-12" value=":Tekton" style="shape=umlLifeline;perimeter=lifelinePerimeter;whiteSpace=wrap;html=1;container=1;dropTarget=0;collapsible=0;recursiveResize=0;outlineConnect=0;portConstraint=eastwest;newEdgeStyle={&quot;curved&quot;:0,&quot;rounded&quot;:0};rounded=0;glass=0;shadow=0;" parent="1" vertex="1">
          <mxGeometry x="530" y="80" width="100" height="560" as="geometry" />
        </mxCell>
        <mxCell id="v9YeCeuR4lEg2rzy3me_-13" value=":Rovar" style="shape=umlLifeline;perimeter=lifelinePerimeter;whiteSpace=wrap;html=1;container=1;dropTarget=0;collapsible=0;recursiveResize=0;outlineConnect=0;portConstraint=eastwest;newEdgeStyle={&quot;curved&quot;:0,&quot;rounded&quot;:0};rounded=0;glass=0;shadow=0;" parent="1" vertex="1">
          <mxGeometry x="640" y="80" width="100" height="560" as="geometry" />
        </mxCell>
        <mxCell id="v9YeCeuR4lEg2rzy3me_-15" style="edgeStyle=orthogonalEdgeStyle;rounded=0;orthogonalLoop=1;jettySize=auto;html=1;exitX=1.091;exitY=0.136;exitDx=0;exitDy=0;exitPerimeter=0;endArrow=block;endFill=1;entryX=-0.058;entryY=0.408;entryDx=0;entryDy=0;entryPerimeter=0;" parent="1" edge="1">
          <mxGeometry relative="1" as="geometry">
            <mxPoint x="117.495" y="499.99800000000005" as="sourcePoint" />
            <mxPoint x="191.9090000000001" y="470.4" as="targetPoint" />
            <Array as="points">
              <mxPoint x="118" y="470" />
            </Array>
          </mxGeometry>
        </mxCell>
        <mxCell id="v9YeCeuR4lEg2rzy3me_-16" value="lep()" style="edgeLabel;html=1;align=center;verticalAlign=middle;resizable=0;points=[];" parent="v9YeCeuR4lEg2rzy3me_-15" vertex="1" connectable="0">
          <mxGeometry x="0.3339" y="1" relative="1" as="geometry">
            <mxPoint x="-23" y="-10" as="offset" />
          </mxGeometry>
        </mxCell>
        <mxCell id="z8pcYm2S3bfLugLfYeci-2" style="edgeStyle=orthogonalEdgeStyle;rounded=0;orthogonalLoop=1;jettySize=auto;html=1;endArrow=block;endFill=1;entryX=0;entryY=0;entryDx=0;entryDy=0;" parent="1" edge="1">
          <mxGeometry relative="1" as="geometry">
            <mxPoint x="117.5" y="150" as="sourcePoint" />
            <mxPoint x="317.5" y="150" as="targetPoint" />
            <Array as="points">
              <mxPoint x="300" y="150" />
              <mxPoint x="300" y="150" />
            </Array>
          </mxGeometry>
        </mxCell>
        <mxCell id="z8pcYm2S3bfLugLfYeci-3" value="idotCsokkent()" style="edgeLabel;html=1;align=center;verticalAlign=middle;resizable=0;points=[];" parent="z8pcYm2S3bfLugLfYeci-2" vertex="1" connectable="0">
          <mxGeometry x="0.2721" y="-1" relative="1" as="geometry">
            <mxPoint x="-29" y="-11" as="offset" />
          </mxGeometry>
        </mxCell>
        <mxCell id="z8pcYm2S3bfLugLfYeci-9" style="edgeStyle=orthogonalEdgeStyle;rounded=0;orthogonalLoop=1;jettySize=auto;html=1;endArrow=block;endFill=1;entryX=0;entryY=0.25;entryDx=0;entryDy=0;" parent="1" edge="1">
          <mxGeometry relative="1" as="geometry">
            <mxPoint x="117.5" y="372.5" as="sourcePoint" />
            <mxPoint x="572.75" y="370" as="targetPoint" />
            <Array as="points">
              <mxPoint x="118" y="370" />
            </Array>
          </mxGeometry>
        </mxCell>
        <mxCell id="z8pcYm2S3bfLugLfYeci-10" value="kettetores()" style="edgeLabel;html=1;align=center;verticalAlign=middle;resizable=0;points=[];" parent="z8pcYm2S3bfLugLfYeci-9" vertex="1" connectable="0">
          <mxGeometry x="-0.4986" y="1" relative="1" as="geometry">
            <mxPoint x="-3" y="-9" as="offset" />
          </mxGeometry>
        </mxCell>
        <mxCell id="z8pcYm2S3bfLugLfYeci-13" style="edgeStyle=orthogonalEdgeStyle;rounded=0;orthogonalLoop=1;jettySize=auto;html=1;endArrow=open;endFill=0;" parent="1" edge="1">
          <mxGeometry relative="1" as="geometry">
            <mxPoint x="117.50000000000023" y="250" as="sourcePoint" />
            <mxPoint x="689.5000000000005" y="250" as="targetPoint" />
            <Array as="points">
              <mxPoint x="250" y="250" />
              <mxPoint x="250" y="250" />
            </Array>
          </mxGeometry>
        </mxCell>
        <mxCell id="z8pcYm2S3bfLugLfYeci-14" value="sporaeffektCsokkent()" style="edgeLabel;html=1;align=center;verticalAlign=middle;resizable=0;points=[];" parent="z8pcYm2S3bfLugLfYeci-13" vertex="1" connectable="0">
          <mxGeometry x="0.1509" relative="1" as="geometry">
            <mxPoint x="-217" y="-10" as="offset" />
          </mxGeometry>
        </mxCell>
        <mxCell id="z8pcYm2S3bfLugLfYeci-24" style="edgeStyle=orthogonalEdgeStyle;rounded=0;orthogonalLoop=1;jettySize=auto;html=1;entryX=1;entryY=0.25;entryDx=0;entryDy=0;endArrow=open;endFill=0;" parent="1" source="v9YeCeuR4lEg2rzy3me_-14" target="z8pcYm2S3bfLugLfYeci-23" edge="1">
          <mxGeometry relative="1" as="geometry">
            <Array as="points">
              <mxPoint x="150" y="550" />
              <mxPoint x="150" y="578" />
            </Array>
          </mxGeometry>
        </mxCell>
        <mxCell id="z8pcYm2S3bfLugLfYeci-25" value="&lt;span&gt;novel()&lt;/span&gt;" style="edgeLabel;html=1;align=center;verticalAlign=middle;resizable=0;points=[];labelBackgroundColor=none;" parent="z8pcYm2S3bfLugLfYeci-24" vertex="1" connectable="0">
          <mxGeometry x="-0.402" y="1" relative="1" as="geometry">
            <mxPoint x="27" y="15" as="offset" />
          </mxGeometry>
        </mxCell>
        <mxCell id="v9YeCeuR4lEg2rzy3me_-14" value="" style="rounded=0;whiteSpace=wrap;html=1;" parent="1" vertex="1">
          <mxGeometry x="102.5" y="143.5" width="15" height="466.5" as="geometry" />
        </mxCell>
        <mxCell id="z8pcYm2S3bfLugLfYeci-1" value=":TektonFelszivodoFonalas" style="shape=umlLifeline;perimeter=lifelinePerimeter;whiteSpace=wrap;html=1;container=1;dropTarget=0;collapsible=0;recursiveResize=0;outlineConnect=0;portConstraint=eastwest;newEdgeStyle={&quot;curved&quot;:0,&quot;rounded&quot;:0};rounded=0;glass=0;shadow=0;" parent="1" vertex="1">
          <mxGeometry x="250" y="80" width="150" height="560" as="geometry" />
        </mxCell>
        <mxCell id="z8pcYm2S3bfLugLfYeci-4" style="edgeStyle=orthogonalEdgeStyle;rounded=0;orthogonalLoop=1;jettySize=auto;html=1;endArrow=block;endFill=1;entryX=0;entryY=0;entryDx=0;entryDy=0;" parent="1" edge="1" target="p2T78z89yq3HBP0iOurk-5">
          <mxGeometry relative="1" as="geometry">
            <mxPoint x="332.5" y="160.02857142857135" as="sourcePoint" />
            <mxPoint x="463.5" y="160" as="targetPoint" />
            <Array as="points">
              <mxPoint x="370" y="160" />
              <mxPoint x="370" y="160" />
            </Array>
          </mxGeometry>
        </mxCell>
        <mxCell id="z8pcYm2S3bfLugLfYeci-5" value="idotCsokkent()" style="edgeLabel;html=1;align=center;verticalAlign=middle;resizable=0;points=[];" parent="z8pcYm2S3bfLugLfYeci-4" vertex="1" connectable="0">
          <mxGeometry x="0.2721" y="-1" relative="1" as="geometry">
            <mxPoint x="-29" y="-11" as="offset" />
          </mxGeometry>
        </mxCell>
        <mxCell id="z8pcYm2S3bfLugLfYeci-7" value="" style="edgeStyle=orthogonalEdgeStyle;rounded=0;orthogonalLoop=1;jettySize=auto;html=1;endArrow=open;endFill=0;entryX=0.56;entryY=0.356;entryDx=0;entryDy=0;entryPerimeter=0;" parent="1" target="z8pcYm2S3bfLugLfYeci-6" edge="1">
          <mxGeometry relative="1" as="geometry">
            <mxPoint x="323" y="170" as="sourcePoint" />
            <mxPoint x="470" y="170" as="targetPoint" />
            <Array as="points" />
          </mxGeometry>
        </mxCell>
        <mxCell id="z8pcYm2S3bfLugLfYeci-6" value="" style="rounded=0;whiteSpace=wrap;html=1;" parent="1" vertex="1">
          <mxGeometry x="317.5" y="150" width="15" height="40" as="geometry" />
        </mxCell>
        <mxCell id="z8pcYm2S3bfLugLfYeci-11" value="opt" style="shape=umlFrame;whiteSpace=wrap;html=1;pointerEvents=0;width=48;height=20;" parent="1" vertex="1">
          <mxGeometry x="41.25" y="350" width="558.75" height="60" as="geometry" />
        </mxCell>
        <mxCell id="z8pcYm2S3bfLugLfYeci-12" value=":Spora" style="shape=umlLifeline;perimeter=lifelinePerimeter;whiteSpace=wrap;html=1;container=1;dropTarget=0;collapsible=0;recursiveResize=0;outlineConnect=0;portConstraint=eastwest;newEdgeStyle={&quot;curved&quot;:0,&quot;rounded&quot;:0};rounded=0;glass=0;shadow=0;" parent="1" vertex="1">
          <mxGeometry x="750" y="80" width="100" height="560" as="geometry" />
        </mxCell>
        <mxCell id="z8pcYm2S3bfLugLfYeci-15" style="edgeStyle=orthogonalEdgeStyle;rounded=0;orthogonalLoop=1;jettySize=auto;html=1;endArrow=open;endFill=0;" parent="1" edge="1">
          <mxGeometry relative="1" as="geometry">
            <mxPoint x="117.5" y="304.5" as="sourcePoint" />
            <mxPoint x="799.5000000000005" y="305.5" as="targetPoint" />
            <Array as="points">
              <mxPoint x="118" y="305.5" />
            </Array>
          </mxGeometry>
        </mxCell>
        <mxCell id="z8pcYm2S3bfLugLfYeci-16" value="hatralevoGyorsitasCsokkent()" style="edgeLabel;html=1;align=center;verticalAlign=middle;resizable=0;points=[];" parent="z8pcYm2S3bfLugLfYeci-15" vertex="1" connectable="0">
          <mxGeometry x="0.1509" relative="1" as="geometry">
            <mxPoint x="-280" y="-10" as="offset" />
          </mxGeometry>
        </mxCell>
        <mxCell id="z8pcYm2S3bfLugLfYeci-17" value="loop" style="shape=umlFrame;whiteSpace=wrap;html=1;pointerEvents=0;width=50;height=20;" parent="1" vertex="1">
          <mxGeometry x="-16" y="129" width="515" height="71" as="geometry" />
        </mxCell>
        <mxCell id="z8pcYm2S3bfLugLfYeci-18" value="&lt;font style=&quot;font-size: 9px;&quot;&gt;[for each&lt;/font&gt;&lt;div&gt;&lt;font style=&quot;font-size: 9px;&quot;&gt;TektonFelszivodoFonalas]&lt;/font&gt;&lt;/div&gt;" style="text;html=1;align=center;verticalAlign=middle;resizable=0;points=[];autosize=1;strokeColor=none;fillColor=none;" parent="1" vertex="1">
          <mxGeometry x="-27.5" y="143.5" width="130" height="40" as="geometry" />
        </mxCell>
        <mxCell id="z8pcYm2S3bfLugLfYeci-19" value="loop" style="shape=umlFrame;whiteSpace=wrap;html=1;pointerEvents=0;width=50;height=20;" parent="1" vertex="1">
          <mxGeometry x="-16" y="210" width="726" height="60" as="geometry" />
        </mxCell>
        <mxCell id="z8pcYm2S3bfLugLfYeci-20" value="loop" style="shape=umlFrame;whiteSpace=wrap;html=1;pointerEvents=0;width=50;height=20;" parent="1" vertex="1">
          <mxGeometry x="-16" y="280" width="836" height="60" as="geometry" />
        </mxCell>
        <mxCell id="z8pcYm2S3bfLugLfYeci-21" value="[for each Rovar]" style="text;html=1;align=center;verticalAlign=middle;resizable=0;points=[];autosize=1;strokeColor=none;fillColor=none;" parent="1" vertex="1">
          <mxGeometry x="-20" y="225" width="110" height="30" as="geometry" />
        </mxCell>
        <mxCell id="z8pcYm2S3bfLugLfYeci-22" value="[for each Spora]" style="text;html=1;align=center;verticalAlign=middle;resizable=0;points=[];autosize=1;strokeColor=none;fillColor=none;" parent="1" vertex="1">
          <mxGeometry x="-20" y="295" width="110" height="30" as="geometry" />
        </mxCell>
        <mxCell id="z8pcYm2S3bfLugLfYeci-23" value="" style="whiteSpace=wrap;html=1;" parent="1" vertex="1">
          <mxGeometry x="110" y="570" width="20" height="30" as="geometry" />
        </mxCell>
        <mxCell id="p2T78z89yq3HBP0iOurk-1" value="" style="whiteSpace=wrap;html=1;" vertex="1" parent="1">
          <mxGeometry x="572.75" y="370" width="14.5" height="30" as="geometry" />
        </mxCell>
        <mxCell id="p2T78z89yq3HBP0iOurk-2" style="edgeStyle=none;curved=1;rounded=0;orthogonalLoop=1;jettySize=auto;html=1;entryX=1.02;entryY=0.525;entryDx=0;entryDy=0;entryPerimeter=0;fontSize=12;startSize=8;endSize=8;dashed=1;endArrow=open;endFill=0;" edge="1" parent="1">
          <mxGeometry relative="1" as="geometry">
            <mxPoint x="572.45" y="400.00431333838173" as="sourcePoint" />
            <mxPoint x="117.49999999999996" y="400.90250000000003" as="targetPoint" />
          </mxGeometry>
        </mxCell>
        <mxCell id="p2T78z89yq3HBP0iOurk-3" value="" style="whiteSpace=wrap;html=1;" vertex="1" parent="1">
          <mxGeometry x="192.75" y="470" width="14.5" height="40" as="geometry" />
        </mxCell>
        <mxCell id="p2T78z89yq3HBP0iOurk-4" style="edgeStyle=none;curved=1;rounded=0;orthogonalLoop=1;jettySize=auto;html=1;entryX=1.011;entryY=0.787;entryDx=0;entryDy=0;entryPerimeter=0;fontSize=12;startSize=8;endSize=8;dashed=1;endArrow=open;endFill=0;" edge="1" parent="1" target="v9YeCeuR4lEg2rzy3me_-14">
          <mxGeometry relative="1" as="geometry">
            <mxPoint x="192.75" y="510.4462519300846" as="sourcePoint" />
            <mxPoint x="119.04499999999985" y="510.00149999999996" as="targetPoint" />
          </mxGeometry>
        </mxCell>
        <mxCell id="p2T78z89yq3HBP0iOurk-5" value="" style="rounded=0;whiteSpace=wrap;html=1;" vertex="1" parent="1">
          <mxGeometry x="456.5" y="160" width="15" height="20" as="geometry" />
        </mxCell>
        <mxCell id="p2T78z89yq3HBP0iOurk-6" style="edgeStyle=none;curved=1;rounded=0;orthogonalLoop=1;jettySize=auto;html=1;entryX=1;entryY=0.75;entryDx=0;entryDy=0;fontSize=12;startSize=8;endSize=8;dashed=1;endArrow=open;endFill=0;exitX=0;exitY=1;exitDx=0;exitDy=0;" edge="1" parent="1" source="p2T78z89yq3HBP0iOurk-5" target="z8pcYm2S3bfLugLfYeci-6">
          <mxGeometry relative="1" as="geometry">
            <mxPoint x="450.75" y="183.4962519300846" as="sourcePoint" />
            <mxPoint x="376" y="184.05" as="targetPoint" />
          </mxGeometry>
        </mxCell>
        <mxCell id="p2T78z89yq3HBP0iOurk-7" style="edgeStyle=none;curved=1;rounded=0;orthogonalLoop=1;jettySize=auto;html=1;entryX=0.957;entryY=0.1;entryDx=0;entryDy=0;fontSize=12;startSize=8;endSize=8;dashed=1;endArrow=open;endFill=0;exitX=0;exitY=1;exitDx=0;exitDy=0;entryPerimeter=0;" edge="1" parent="1" source="z8pcYm2S3bfLugLfYeci-6" target="v9YeCeuR4lEg2rzy3me_-14">
          <mxGeometry relative="1" as="geometry">
            <mxPoint x="284" y="183.5" as="sourcePoint" />
            <mxPoint x="160" y="183.5" as="targetPoint" />
          </mxGeometry>
        </mxCell>
      </root>
    </mxGraphModel>
  </diagram>
</mxfile>
